<svg xmlns="http://www.w3.org/2000/svg" xmlns:xlink="http://www.w3.org/1999/xlink" viewBox="0 0 87.11 87.11"><defs><style>.cls-1{fill:#b3b3b3;}.cls-2{fill:url(#Degradado_sin_nombre_22);}.cls-3{fill:url(#Degradado_sin_nombre_22-2);}.cls-4{fill:url(#Degradado_sin_nombre_22-3);}</style><linearGradient id="Degradado_sin_nombre_22" y1="43.56" x2="87.11" y2="43.56" gradientUnits="userSpaceOnUse"><stop offset="0.17" stop-color="#00d2bc"/><stop offset="1" stop-color="#0071bc"/></linearGradient><linearGradient id="Degradado_sin_nombre_22-2" x1="20.37" y1="43.58" x2="65.71" y2="43.58" xlink:href="#Degradado_sin_nombre_22"/><linearGradient id="Degradado_sin_nombre_22-3" x1="8.83" y1="56.2" x2="67.95" y2="56.2" xlink:href="#Degradado_sin_nombre_22"/></defs><title>logo-1</title><g id="Capa_2" data-name="Capa 2"><g id="Layer_1" data-name="Layer 1"><path class="cls-1" d="M42.64,18.51c.23,4.11.33,8.22.42,12.33s.12,8.22.13,12.33,0,8.22-.13,12.33l-.15,6.17c-.09,2-.15,4.11-.27,6.16-.13-2-.18-4.11-.28-6.16l-.15-6.17c-.1-4.11-.12-8.22-.13-12.33s0-8.22.13-12.33S42.41,22.62,42.64,18.51Z"/><path class="cls-1" d="M67.3,43.17c-4.11.23-8.22.34-12.33.43s-8.22.11-12.33.13-8.22,0-12.34-.13l-6.16-.16c-2.06-.09-4.11-.14-6.17-.27C20,43,22.08,43,24.14,42.9l6.16-.16c4.12-.1,8.23-.11,12.34-.13s8.22,0,12.33.13S63.19,42.94,67.3,43.17Z"/><path class="cls-2" d="M82.89,33.33,53.79,4.22a14.51,14.51,0,0,0-20.46,0L18.8,18.75l0,0,0,0L4.22,33.33a14.51,14.51,0,0,0,0,20.46l29.11,29.1a14.51,14.51,0,0,0,20.46,0l29.1-29.1a14.51,14.51,0,0,0,0-20.46ZM66.76,66.76A32.82,32.82,0,0,1,20.33,20.37l0-.05A32.82,32.82,0,0,1,66.76,66.76Z"/><path class="cls-3" d="M63.94,57.46A25.85,25.85,0,0,1,45,64a25.47,25.47,0,0,1-10.45-2.94,24.63,24.63,0,0,1-8.23-7,20.28,20.28,0,0,1-1.93-20.57,21.06,21.06,0,0,1,1.3-2.38c.23-.39.53-.73.78-1.1a11,11,0,0,1,.84-1.07,17.07,17.07,0,0,1,4-3.53,16.15,16.15,0,0,1,19.77,2.15A12.57,12.57,0,0,1,55,37a12.71,12.71,0,0,1-4.42,9.2A9.84,9.84,0,0,1,36.84,45a7.56,7.56,0,0,1-1.68-4.5,7.68,7.68,0,0,1,1.36-4.6,6.05,6.05,0,0,1,3.8-2.63C43.39,32.54,47,34.85,47,38a4.66,4.66,0,0,1-.5,2.25A4.38,4.38,0,0,1,44.94,42a4,4,0,0,1-3.91.2,2.09,2.09,0,0,1-.73.37,5,5,0,0,0,5.39.87A6.29,6.29,0,0,0,49.17,38a6.62,6.62,0,0,0-.73-3.31,7.21,7.21,0,0,0-2.24-2.53,8.27,8.27,0,0,0-6.36-1.39,8.57,8.57,0,0,0-5.41,3.61,9.82,9.82,0,0,0-1.79,6.16,10,10,0,0,0,2.3,6,12,12,0,0,0,5.19,3.54A12.18,12.18,0,0,0,52,47.91a14.75,14.75,0,0,0,5.1-10.81,15.16,15.16,0,0,0-1.06-6,14.88,14.88,0,0,0-3.41-5.05,18.2,18.2,0,0,0-22.33-2.45,19,19,0,0,0-4.52,3.95,10.61,10.61,0,0,0-.93,1.17c-.29.41-.61.79-.86,1.22a20.89,20.89,0,0,0-1.44,2.62,22.72,22.72,0,0,0-2.06,11.66,22.49,22.49,0,0,0,4.16,11.08A27.41,27.41,0,0,0,44.9,66.21a28.07,28.07,0,0,0,20.81-7.37A2.69,2.69,0,0,1,63.94,57.46Z"/><path class="cls-4" d="M66.34,60a3.84,3.84,0,1,1,3.84-3.84A3.84,3.84,0,0,1,66.34,60Zm0-5.45A1.61,1.61,0,1,0,68,56.2,1.61,1.61,0,0,0,66.34,54.59Z"/></g></g></svg>