<svg xmlns="http://www.w3.org/2000/svg" viewBox="0 0 3.88 7.72"><defs><style>.cls-1{fill:#28292e;}.cls-2{fill:#fbb03b;}</style></defs><title>crane-2</title><g id="Capa_2" data-name="Capa 2"><g id="Layer_1" data-name="Layer 1"><path class="cls-1" d="M1.47,4.61A3.46,3.46,0,0,0,.75,6.17a1.37,1.37,0,0,0,.89,1.48,1.4,1.4,0,0,0,1.57-.43A1.77,1.77,0,0,0,3.27,6a2.29,2.29,0,0,1,0-.44A.12.12,0,0,0,3,5.6a2.85,2.85,0,0,1-.2,1,.58.58,0,0,1-.93-.06c-.14-.42.31-1.14.31-1.14Z"/><polygon class="cls-2" points="3.13 0 1.94 0 0.75 0 0 0.84 0 2.64 1.61 5.39 1.94 5.39 2.26 5.39 3.88 2.64 3.88 0.84 3.13 0"/></g></g></svg>