<svg xmlns="http://www.w3.org/2000/svg" viewBox="0 0 83.68 77.06"><defs><style>.cls-1{fill:#fbb03b;}.cls-2{fill:#535b65;}.cls-3{fill:#161010;}</style></defs><title>crane-1</title><g id="Capa_2" data-name="Capa 2"><g id="Layer_1" data-name="Layer 1"><path class="cls-1" d="M33.72,38.11h-6.9V24.94h9.59v3.22C36.41,35.29,33.72,38.11,33.72,38.11Z"/><path class="cls-2" d="M36.41,28.16v-2.3H28.75a.25.25,0,0,0-.25.25v5.78a.25.25,0,0,0,.25.25h1.1a.25.25,0,0,1,.22.13l1.46,2.84a.24.24,0,0,0,.22.13h3.54A20.32,20.32,0,0,0,36.41,28.16Z"/><path class="cls-2" d="M20,73.78V25H0l6.24-6.83H20v-14l3.42-4L26.82,4.1V18.17H76.17L83.68,25H26.82V73.78Zm.78-.47h5.58V67.18Zm-.3-.38L26,66.81H20.46Zm0-6.6H26l-5.58-6.12ZM26.34,66V59.83H20.76Zm-5.58-6.6h5.58V53.24Zm-.3-.37L26,52.86H20.46Zm0-6.6H26l-5.58-6.13ZM26.34,52V45.89H20.76Zm-5.58-6.59h5.58V39.29Zm-.3-.38L26,38.92H20.46Zm0-6.6H26l-5.58-6.12Zm5.88-.37V31.94H20.76Zm-5.58-6.6h5.58V25.35Zm-.3-.37L26,25H20.46Zm55.83-6.57h6.12l-6.12-5.59Zm-6.6,0h6.13V18.94Zm-7.35,0h6.13l-6.13-5.59Zm-6.59,0h6.12V18.94Zm-7.35,0h6.12L48.4,18.94Zm-6.6,0h6.12V18.94Zm-7.35,0h6.13l-6.13-5.59Zm-6.59,0H34V18.94Zm-13.95,0H20v0l.05-.24V18.94Zm-7.35,0h6.13L6.56,18.94Zm-5.48,0h5V19Zm19.43,0H26.6l-6.09-5.56Zm34.39-.27V18.64H48.77ZM27,24.23V18.64H20.88Zm42.31,0,6.12-5.59H69.32Zm-13.95,0,6.13-5.59H55.37Zm-13.94,0,6.12-5.59H41.43Zm-13.95,0,6.13-5.59H27.48Zm-13.94,0,6.12-5.59H13.54Zm-.48,0V18.64H6.94Zm27.89,0V18.64H34.83Zm27.89,0V18.64H62.72ZM20.76,18.15h5.58V12Zm-.3-.38L26,11.65H20.46Zm0-6.6H26L20.46,5.05Zm5.88-.37V4.68H20.76ZM20.58,4.2h5.75L23.4,1Z"/><polygon class="cls-3" points="76.12 18.31 23.45 0.36 6.36 18.27 6.13 18.06 23.36 0 23.45 0.03 76.22 18.02 76.12 18.31"/><rect class="cls-1" x="14.5" y="73.78" width="17.12" height="3.28"/></g></g></svg>