<svg xmlns="http://www.w3.org/2000/svg" viewBox="0 0 48.58 55.81"><defs><style>.cls-1{fill:#535b65;}.cls-2{fill:#fbb03b;}.cls-3{fill:#619cec;}.cls-4{fill:#666;}.cls-5{fill:#e58126;}.cls-6{fill:#28292e;}</style></defs><title>lift-1</title><g id="Capa_2" data-name="Capa 2"><g id="Layer_1" data-name="Layer 1"><rect class="cls-1" x="40.48" y="22.16" width="1.27" height="7.05" transform="translate(-7.23 22.12) rotate(-27.78)"/><path class="cls-1" d="M41.5,18.87l-6.23,3.29c-.13.06-.09.37.07.68s.39.5.52.44L42.09,20c.13-.06.1-.36-.07-.67S41.63,18.81,41.5,18.87Z"/><polygon class="cls-1" points="39.06 23.15 36.66 22.86 36.14 23.13 39.25 23.52 39.06 23.15"/><polygon class="cls-1" points="40.18 22.56 41.29 20.42 41.81 20.14 40.37 22.93 40.18 22.56"/><rect class="cls-1" x="39.09" y="21.21" width="0.25" height="1.74" transform="translate(-5.77 20.81) rotate(-27.77)"/><path class="cls-2" d="M48.58,46.46H0V34.2a3.84,3.84,0,0,1,3.84-3.84h25.3l5.09,8h3.1l9.14-1.75L48,30.36A132.07,132.07,0,0,1,48.58,46.46Z"/><polygon class="cls-3" points="48.58 50.45 0 50.45 0 43.36 15.18 43.36 20.76 46.46 48.58 46.46 48.58 50.45"/><path class="cls-1" d="M16.77,27.66H27.82a1.28,1.28,0,0,1,1.28,1.28v1.42a0,0,0,0,1,0,0H15.49a0,0,0,0,1,0,0V28.93A1.28,1.28,0,0,1,16.77,27.66Z"/><path class="cls-1" d="M15.49,28.93s-1.16-10.58-1.16-11.85,1-1.19,1.58-.63,3.78,11.84,3.78,11.84Z"/><polygon class="cls-4" points="46.36 34.49 42.69 32.66 41.67 25.38 45.37 24.86 46.36 28.67 46.36 34.49"/><path class="cls-5" d="M29.14,30.36H3.84A3.84,3.84,0,0,0,0,34.2H31.57Z"/><path class="cls-6" d="M11.61,50A5.81,5.81,0,1,1,5.8,44.2,5.81,5.81,0,0,1,11.61,50Z"/><circle class="cls-2" cx="5.8" cy="50" r="3.1"/><path class="cls-6" d="M48.58,48.18A7.63,7.63,0,1,1,41,40.55,7.64,7.64,0,0,1,48.58,48.18Z"/><path class="cls-2" d="M45,48.18A4.08,4.08,0,1,1,41,44.1,4.08,4.08,0,0,1,45,48.18Z"/><path class="cls-1" d="M10.69,17.64,13.73,2a2.44,2.44,0,0,1,2.4-2h20.8a3.1,3.1,0,0,1,2.39,1.16c6.07,7.23,8.24,22.33,9,31.8.24,3.15.31,5.68.31,7.09a.74.74,0,0,1-.74.74H29.1L10.69,31.45ZM43.81,38.77A2.75,2.75,0,0,0,46.55,36v4c0-1.7-.08-4.12-.28-6.93-.72-9.64-2.92-24-8.5-30.66A1.11,1.11,0,0,0,36.93,2H16.13a.41.41,0,0,0-.41.34l-3,15.47V30.36l16.92,8.41Z"/></g></g></svg>