<svg xmlns="http://www.w3.org/2000/svg" viewBox="0 0 34.23 52.31"><defs><style>.cls-1{fill:#e58126;}.cls-2{fill:#28292e;}.cls-3{fill:#666;}</style></defs><title>lift-2</title><g id="Capa_2" data-name="Capa 2"><g id="Layer_1" data-name="Layer 1"><polygon class="cls-1" points="6.94 52.31 6.7 50.52 34.13 46.84 34.23 47.59 28.6 49.41 6.94 52.31"/><polygon class="cls-2" points="12.21 49.78 9.59 50.13 6.95 52.31 9.66 51.95 12.22 49.83 12.21 49.78"/><polygon class="cls-2" points="15 49.41 12.44 51.52 12.45 51.57 15.07 51.22 17.71 49.04 15 49.41"/><polygon class="cls-2" points="20.41 48.68 17.77 50.86 20.48 50.5 23.12 48.32 20.41 48.68"/><polygon class="cls-2" points="25.82 47.96 23.18 50.13 25.89 49.77 28.53 47.59 25.82 47.96"/><polygon class="cls-2" points="31.23 47.23 28.59 49.41 28.6 49.41 32.31 48.21 33.94 46.87 31.23 47.23"/><rect class="cls-3" x="3.33" y="0.04" width="3.9" height="50.45" transform="translate(-3.31 0.92) rotate(-7.63)"/></g></g></svg>