<svg xmlns="http://www.w3.org/2000/svg" xmlns:xlink="http://www.w3.org/1999/xlink" viewBox="0 0 348.4 39.4"><defs><style>.cls-1{fill:url(#Degradado_sin_nombre_22);}.cls-2{fill:url(#Degradado_sin_nombre_22-5);}.cls-3{fill:url(#Degradado_sin_nombre_22-9);}</style><linearGradient id="Degradado_sin_nombre_22" x1="2.67" y1="20.01" x2="335" y2="20.01" gradientUnits="userSpaceOnUse"><stop offset="0.17" stop-color="#00d2bc"/><stop offset="1" stop-color="#0071bc"/></linearGradient><linearGradient id="Degradado_sin_nombre_22-5" x1="2.67" y1="19.7" x2="335" y2="19.7" xlink:href="#Degradado_sin_nombre_22"/><linearGradient id="Degradado_sin_nombre_22-9" x1="2.67" y1="19.39" x2="335" y2="19.39" xlink:href="#Degradado_sin_nombre_22"/></defs><title>logo-2</title><g id="Capa_2" data-name="Capa 2"><g id="Layer_1" data-name="Layer 1"><path class="cls-1" d="M0,1.25H26.89V5.63H5V16.89H26.27v4.37H5V34.4H27.52v4.38H0Z"/><path class="cls-1" d="M45.66,20,31.28,1.25h6.25L48.79,15.64,60.05,1.25H66.3L51.92,20,66.3,38.78H60.05l-11.26-15-11.26,15H31.28Z"/><path class="cls-1" d="M70.68,1.25H88.2C97,1.25,102,6.88,102,14.38S97,27.52,88.2,27.52H75.69V38.78h-5ZM87.57,23.14c5.63,0,9.38-3.75,9.38-8.76S93.2,5.63,87.57,5.63H75.69V23.14Z"/><path class="cls-1" d="M105.71,20A19.39,19.39,0,1,1,125.1,39.4,19.48,19.48,0,0,1,105.71,20Zm33.77,0c0-8.13-6.25-15-14.38-15s-14.39,6.88-14.39,15S117,35,125.1,35,139.48,28.15,139.48,20Z"/><path class="cls-2" d="M183.27,18.14V38.78h-5V18.14c0-7.51-5-13.14-11.26-13.14s-11.26,5.63-11.26,13.14V38.78h-5V18.14C150.75,7.5,158.25.63,167,.63S183.27,7.5,183.27,18.14Z"/><path class="cls-2" d="M260.21,18.14V38.78h-5V18.14C255.2,10.63,250.2,5,244,5s-11.26,5.63-11.26,13.14V38.78h-5V18.14C227.68,7.5,235.19.63,244,.63S260.21,7.5,260.21,18.14Z"/><path class="cls-1" d="M278.35,5.63H265.84V1.25h30V5.63H283.35V38.78h-5Z"/><path class="cls-1" d="M301.49,1.25h5V38.78h-5Z"/><path class="cls-3" d="M348.4,38.78h-5.62L329.64,10.63,316.51,38.78h-5.63L329.64,0Z"/></g></g></svg>